<svg id="ea198fb4-2142-446a-9236-b559ecfc542a" data-name="Ebene 1" xmlns="http://www.w3.org/2000/svg" width="87.42584mm" height="10.12204mm" viewBox="0 0 247.82129 28.69238">
  <g>
    <path d="M16.96387,19.31512a12.47463,12.47463,0,0,1,2.95215,1.728,1.16435,1.16435,0,0,0,.68408.32373q.71923,0,.936-2.15967h.82764q-.14428,2.44849-.14356,8.71192h-.82812a17.97033,17.97033,0,0,0-.86426-4.06836A5.80282,5.80282,0,0,0,18.69189,21.403a6.10542,6.10542,0,0,0-2.08789-1.314,6.9586,6.9586,0,0,0-2.48388-.4502,5.72255,5.72255,0,0,0-5.39991,3.54639,19.74683,19.74683,0,0,0-1.76416,8.83789A18.88756,18.88756,0,0,0,8.792,40.80682a5.86653,5.86653,0,0,0,5.47217,3.52832,6.88947,6.88947,0,0,0,2.42969-.45019A5.366,5.366,0,0,0,18.728,42.57147,5.268,5.268,0,0,0,20.582,40.051a20.61793,20.61793,0,0,0,.81006-4.42773h.82812q0,6.51563.14356,9.07227h-.82764A6.4036,6.4036,0,0,0,21.23,43.05682q-.19848-.48486-.5581-.48535a1.57116,1.57116,0,0,0-.75586.28809,15.218,15.218,0,0,1-3.0962,1.74609,9.56066,9.56066,0,0,1-3.564.59375,13.82064,13.82064,0,0,1-6.67774-1.54785,10.818,10.818,0,0,1-4.44628-4.48242,14.5358,14.5358,0,0,1-1.584-7.002,14.77633,14.77633,0,0,1,1.62012-7.02A11.741,11.741,0,0,1,6.686,20.3952a12.85662,12.85662,0,0,1,6.606-1.69238A9.79949,9.79949,0,0,1,16.96387,19.31512Z" transform="translate(-0.54785 -16.50702)"/>
    <path d="M26.55762,43.759a4.34593,4.34593,0,0,1-1.13428-3.13183,4.166,4.166,0,0,1,.84619-2.68164,5.78138,5.78138,0,0,1,2.05176-1.63868,30.5251,30.5251,0,0,1,3.07812-1.22363A15.89026,15.89026,0,0,0,34.29736,33.841a1.71412,1.71412,0,0,0,.918-1.52978V29.50311a3.58694,3.58694,0,0,0-.70215-2.35791,2.66881,2.66881,0,0,0-2.17773-.84619,3.65207,3.65207,0,0,0-2.62793.86377,3.353,3.353,0,0,1,1.56592,1.08008,2.68573,2.68573,0,0,1,.5581,1.69238,2.44537,2.44537,0,0,1-.82812,1.94385,2.964,2.964,0,0,1-2.01612.71973,2.42714,2.42714,0,0,1-1.94384-.792,3.22763,3.22763,0,0,1-.19825-3.68994,4.82977,4.82977,0,0,1,1.49415-1.314,8.32284,8.32284,0,0,1,2.394-.8999,14.02529,14.02529,0,0,1,3.11377-.32422,11.52238,11.52238,0,0,1,3.06006.36035,4.8137,4.8137,0,0,1,2.16015,1.22363,3.97307,3.97307,0,0,1,1.062,1.94434,14.32688,14.32688,0,0,1,.27,3.13183v9.79248a3.26208,3.26208,0,0,0,.16211,1.22364.62293.62293,0,0,0,.62989.36035,2.23051,2.23051,0,0,0,1.29589-.61231l.35987.61231a6.03164,6.03164,0,0,1-3.96,1.332,3.863,3.863,0,0,1-2.772-.792,2.989,2.989,0,0,1-.82763-2.124,5.83937,5.83937,0,0,1-5.292,2.916A4.54369,4.54369,0,0,1,26.55762,43.759Zm8.65771-2.59179V33.78729a5.493,5.493,0,0,1-1.83594,1.584,8.76379,8.76379,0,0,0-2.124,1.7998,4.06563,4.06563,0,0,0-.72021,2.5918,3.25679,3.25679,0,0,0,.6123,2.17871,2.0438,2.0438,0,0,0,1.62012.70215A2.98328,2.98328,0,0,0,35.21533,41.16718Z" transform="translate(-0.54785 -16.50702)"/>
    <path d="M58.72314,26.551a3.48729,3.48729,0,0,1,.82813,2.33985,3.102,3.102,0,0,1-.77393,2.17822,2.62815,2.62815,0,0,1-2.03418.84619,2.84626,2.84626,0,0,1-1.94384-.63037A2.11154,2.11154,0,0,1,54.0791,29.611a3.2696,3.2696,0,0,1,1.58447-2.8081,1.95427,1.95427,0,0,0-.43212-.03614,1.87691,1.87691,0,0,0-.57618.07227,3.429,3.429,0,0,0-2.32177,1.65576,5.285,5.285,0,0,0-.95411,2.95215v9.54053a2.80384,2.80384,0,0,0,.81006,2.30371,4.11756,4.11756,0,0,0,2.57373.64844v.75586a7.62878,7.62878,0,0,1-.82763-.03614q-3.67238-.10839-4.896-.1084-.97266,0-4.42822.1084a5.88757,5.88757,0,0,1-.72022.03614v-.75586a2.35413,2.35413,0,0,0,1.8003-.5586,3.08329,3.08329,0,0,0,.5039-2.03418V30.007a4.46085,4.46085,0,0,0-.5039-2.41211,2.00427,2.00427,0,0,0-1.8003-.75586v-.75586q1.15211.10767,2.23243.10791a22.59969,22.59969,0,0,0,5.25585-.50391v3.34766a6.10451,6.10451,0,0,1,1.98-2.50195,4.7988,4.7988,0,0,1,2.916-.9541A3.03708,3.03708,0,0,1,58.72314,26.551Z" transform="translate(-0.54785 -16.50702)"/>
    <path d="M75.96729,27.93719q2.34007,2.35767,2.34033,7.47022,0,5.1123-2.34033,7.45215a8.75587,8.75587,0,0,1-6.48,2.33984,8.76793,8.76793,0,0,1-6.46191-2.33984q-2.35841-2.34082-2.35791-7.45215,0-5.1123,2.35791-7.47022A8.73284,8.73284,0,0,1,69.4873,25.5788,8.72078,8.72078,0,0,1,75.96729,27.93719Zm-8.94581.61182a19.24212,19.24212,0,0,0-.918,6.8584,19.08256,19.08256,0,0,0,.918,6.83984q.91773,2.23242,2.46582,2.23243,1.58424,0,2.48438-2.21485a19.415,19.415,0,0,0,.8999-6.85742,19.22173,19.22173,0,0,0-.918-6.87647q-.91845-2.23168-2.46631-2.23193Q67.939,26.299,67.02148,28.549Z" transform="translate(-0.54785 -16.50702)"/>
    <path d="M87.523,41.34686a3.08037,3.08037,0,0,0,.50391,2.03418,2.35336,2.35336,0,0,0,1.80029.5586v.75586q-3.74487-.14357-4.82422-.14454-1.22462,0-4.96777.14454v-.75586a2.36148,2.36148,0,0,0,1.78173-.5586,3.006,3.006,0,0,0,.522-2.03418v-20.52a4.33536,4.33536,0,0,0-.522-2.41162,2.00984,2.00984,0,0,0-1.78173-.75635V16.903q1.15135.10765,2.23193.10791A23.178,23.178,0,0,0,87.523,16.507Z" transform="translate(-0.54785 -16.50702)"/>
    <path d="M98.86279,41.34686a3.00329,3.00329,0,0,0,.522,2.03418,2.35924,2.35924,0,0,0,1.78173.5586v.75586q-3.59985-.14357-4.78759-.14454-1.11621,0-5.0044.14454v-.75586a2.35409,2.35409,0,0,0,1.80029-.5586,3.08323,3.08323,0,0,0,.50391-2.03418V30.007a4.46075,4.46075,0,0,0-.50391-2.41211,2.00424,2.00424,0,0,0-1.80029-.75586v-.75586q1.1521.10767,2.23242.10791a22.59973,22.59973,0,0,0,5.25586-.50391Zm-.41406-23.814a2.50977,2.50977,0,0,1,.88184,2.03418,2.50811,2.50811,0,0,1-.88184,2.03369,4.25076,4.25076,0,0,1-4.78809,0,2.50668,2.50668,0,0,1-.88183-2.03369,2.50833,2.50833,0,0,1,.88183-2.03418,4.253,4.253,0,0,1,4.78809,0Z" transform="translate(-0.54785 -16.50702)"/>
    <path d="M120.06592,26.98309a3.92877,3.92877,0,0,1,.86426,1.76368,13.419,13.419,0,0,1,.25146,2.916v9.68408a3.00631,3.00631,0,0,0,.52148,2.03418,2.36381,2.36381,0,0,0,1.78321.5586v.75586q-3.60059-.14357-4.75244-.14454-1.07959,0-4.67969.14454v-.75586a1.80129,1.80129,0,0,0,1.51172-.5586,3.47306,3.47306,0,0,0,.43262-2.03418V30.15106a4.1611,4.1611,0,0,0-.48633-2.23193,1.91557,1.91557,0,0,0-1.7461-.75635,3.22025,3.22025,0,0,0-2.52,1.20606,4.37921,4.37921,0,0,0-1.04394,2.97021V41.34686a3.47359,3.47359,0,0,0,.43213,2.03418,1.80066,1.80066,0,0,0,1.51172.5586v.75586q-3.31275-.14357-4.46387-.14454-1.08033,0-4.96826.14454v-.75586a2.35412,2.35412,0,0,0,1.80029-.5586,3.08323,3.08323,0,0,0,.50391-2.03418V30.007a4.46075,4.46075,0,0,0-.50391-2.41211,2.00426,2.00426,0,0,0-1.80029-.75586v-.75586q1.15209.10767,2.23242.10791a22.59985,22.59985,0,0,0,5.25586-.50391v3.23975q1.62012-3.34789,5.90381-3.34814A4.999,4.999,0,0,1,120.06592,26.98309Z" transform="translate(-0.54785 -16.50702)"/>
    <path d="M140.1543,39.36737l.64648.21582a8.59546,8.59546,0,0,1-2.57226,3.97852,6.73659,6.73659,0,0,1-4.627,1.63769,7.86788,7.86788,0,0,1-6.0664-2.42969q-2.25-2.43017-2.25-7.18261,0-4.86036,2.41211-7.43408a8.36687,8.36687,0,0,1,6.4082-2.57422q6.76758,0,6.76758,7.99267H130.75781c-.02343.35938-.03711.92383-.03711,1.69141a10.26927,10.26927,0,0,0,.666,3.96,5.05806,5.05806,0,0,0,1.72851,2.30469,3.99323,3.99323,0,0,0,2.28711.71972A5.42114,5.42114,0,0,0,140.1543,39.36737Zm-8.40625-11.43018a12.858,12.858,0,0,0-1.0625,4.94971h5.65234a13.75936,13.75936,0,0,0-.55859-4.69775q-.62988-1.85376-1.89063-1.854A2.47176,2.47176,0,0,0,131.74805,27.93719Z" transform="translate(-0.54785 -16.50702)"/>
    <path d="M164.5625,22.39325q3.49218,3.1853,3.49219,9.26953a13.36948,13.36948,0,0,1-1.71094,6.85889,11.55067,11.55067,0,0,1-4.93164,4.55371,16.92949,16.92949,0,0,1-7.68555,1.62012l-2.23242-.03614q-2.08887-.07177-3.02344-.07226-3.709,0-5.54492.1084v-.72071a6.21887,6.21887,0,0,0,1.7461-.28711,1.24137,1.24137,0,0,0,.75585-.82812,7.025,7.025,0,0,0,.19922-1.98047v-17.856a7.02094,7.02094,0,0,0-.19922-1.98,1.24137,1.24137,0,0,0-.75585-.82812,6.24818,6.24818,0,0,0-1.7461-.28809v-.71973q1.51466.10767,4.35742.10791h1.11524l1.43945-.03613q2.95313-.07178,4.21289-.07178Q161.07032,19.20721,164.5625,22.39325Zm-12.22266-2.28613a1.42748,1.42748,0,0,0-.77343.8999,6.54244,6.54244,0,0,0-.21485,1.94385V40.95135a6.54615,6.54615,0,0,0,.21485,1.94434,1.42535,1.42535,0,0,0,.77343.89941,4.38928,4.38928,0,0,0,1.71094.252q4.35645,0,6.19141-3.042,1.83692-3.041,1.83593-9.19825,0-6.156-1.88867-9.05371-1.89258-2.89746-6.17578-2.89795A4.25936,4.25936,0,0,0,152.33984,20.10712Z" transform="translate(-0.54785 -16.50702)" fill="#e40c23"/>
    <path d="M177.99023,41.34686a3.00625,3.00625,0,0,0,.52149,2.03418,2.36082,2.36082,0,0,0,1.7832.5586v.75586q-3.60058-.14357-4.78906-.14454-1.11621,0-5.00391.14454v-.75586a2.359,2.359,0,0,0,1.80078-.5586,3.08323,3.08323,0,0,0,.50391-2.03418V30.007a4.46075,4.46075,0,0,0-.50391-2.41211,2.008,2.008,0,0,0-1.80078-.75586v-.75586q1.15137.10767,2.23243.10791a22.59969,22.59969,0,0,0,5.25585-.50391Zm-.41406-23.814a2.51047,2.51047,0,0,1,.88281,2.03418,2.50882,2.50882,0,0,1-.88281,2.03369,4.24918,4.24918,0,0,1-4.78711,0,2.503,2.503,0,0,1-.88281-2.03369,2.50467,2.50467,0,0,1,.88281-2.03418,4.25146,4.25146,0,0,1,4.78711,0Z" transform="translate(-0.54785 -16.50702)" fill="#e40c23"/>
    <path d="M199.19336,26.98309a3.92772,3.92772,0,0,1,.86328,1.76368,13.38336,13.38336,0,0,1,.252,2.916v9.68408a3.00625,3.00625,0,0,0,.52149,2.03418,2.36378,2.36378,0,0,0,1.7832.5586v.75586q-3.60059-.14357-4.75195-.14454-1.08106,0-4.67969.14454v-.75586a1.80381,1.80381,0,0,0,1.51172-.5586,3.48189,3.48189,0,0,0,.43164-2.03418V30.15106a4.1611,4.1611,0,0,0-.48633-2.23193,1.91556,1.91556,0,0,0-1.74609-.75635,3.21858,3.21858,0,0,0-2.51953,1.20606,4.3751,4.3751,0,0,0-1.04493,2.97021V41.34686a3.4642,3.4642,0,0,0,.4336,2.03418,1.79877,1.79877,0,0,0,1.51172.5586v.75586q-3.31349-.14357-4.46485-.14454-1.07812,0-4.96679.14454v-.75586a2.351,2.351,0,0,0,1.79882-.5586,3.08323,3.08323,0,0,0,.50391-2.03418V30.007a4.46075,4.46075,0,0,0-.50391-2.41211,2.002,2.002,0,0,0-1.79882-.75586v-.75586q1.15137.10767,2.23047.10791a22.58817,22.58817,0,0,0,5.25585-.50391v3.23975q1.62012-3.34789,5.9043-3.34814A5.00127,5.00127,0,0,1,199.19336,26.98309Z" transform="translate(-0.54785 -16.50702)" fill="#e40c23"/>
    <path d="M213.59375,25.92108a6.16545,6.16545,0,0,1,1.76367.77393,1.16782,1.16782,0,0,0,.64844.252.67632.67632,0,0,0,.55859-.3418,2.22428,2.22428,0,0,0,.30469-.99023h.75586q-.14355,1.83618-.14258,6.33594h-.75781a9.0977,9.0977,0,0,0-1.42188-3.978,3.62278,3.62278,0,0,0-3.18554-1.60205,2.61321,2.61321,0,0,0-1.78125.6123,2.125,2.125,0,0,0-.70313,1.6919,2.96641,2.96641,0,0,0,.82813,2.106,18.2169,18.2169,0,0,0,2.59179,2.14209l1.04493.75586a18.71806,18.71806,0,0,1,3.24023,2.95215,5.00384,5.00384,0,0,1,1.043,3.24024,4.54393,4.54393,0,0,1-.918,2.80761,5.80016,5.80016,0,0,1-2.46484,1.87207,8.77168,8.77168,0,0,1-3.41993.64844,7.05045,7.05045,0,0,1-3.38476-.75586,17.44519,17.44519,0,0,0-1.65625-.75586.552.552,0,0,0-.62891.2334,2.49909,2.49909,0,0,0-.41406,1.02637h-.75586q.14355-2.05226.14258-7.2002h.75586q.7207,6.624,4.86133,6.624a2.65239,2.65239,0,0,0,1.78125-.62989,2.39376,2.39376,0,0,0,.73828-1.92578,3.59469,3.59469,0,0,0-.44922-1.80078,5.60709,5.60709,0,0,0-1.13477-1.40332q-.68555-.6123-2.05273-1.69238-1.62012-1.29639-2.46484-2.08789a7.47459,7.47459,0,0,1-1.44141-1.87207,4.93731,4.93731,0,0,1-.59375-2.41211,4.27988,4.27988,0,0,1,1.80078-3.63623,7.18159,7.18159,0,0,1,4.39258-1.332A8.82758,8.82758,0,0,1,213.59375,25.92108Z" transform="translate(-0.54785 -16.50702)" fill="#e40c23"/>
    <path d="M235.91406,39.36737l.64649.21582a8.5954,8.5954,0,0,1-2.57227,3.97852,6.73658,6.73658,0,0,1-4.62695,1.63769,7.8679,7.8679,0,0,1-6.06641-2.42969q-2.25-2.43017-2.25-7.18261,0-4.86036,2.41211-7.43408a8.36687,8.36687,0,0,1,6.4082-2.57422q6.76758,0,6.76758,7.99267H226.51758c-.02344.35938-.03711.92383-.03711,1.69141a10.26928,10.26928,0,0,0,.666,3.96,5.05814,5.05814,0,0,0,1.72852,2.30469,3.99318,3.99318,0,0,0,2.28711.71972A5.42112,5.42112,0,0,0,235.91406,39.36737Zm-8.40625-11.43018a12.85815,12.85815,0,0,0-1.0625,4.94971h5.65235a13.75959,13.75959,0,0,0-.5586-4.69775q-.62988-1.85376-1.89062-1.854A2.47177,2.47177,0,0,0,227.50781,27.93719Z" transform="translate(-0.54785 -16.50702)" fill="#e40c23"/>
    <path d="M246.06445,41.34686a3.08323,3.08323,0,0,0,.50391,2.03418,2.3561,2.3561,0,0,0,1.80078.5586v.75586q-3.74413-.14357-4.82422-.14454-1.2246,0-4.96875.14454v-.75586a2.36381,2.36381,0,0,0,1.78321-.5586,3.00631,3.00631,0,0,0,.52148-2.03418v-20.52a4.33594,4.33594,0,0,0-.52148-2.41162,2.01155,2.01155,0,0,0-1.78321-.75635V16.903q1.15429.10765,2.23242.10791a23.175,23.175,0,0,0,5.25586-.50391Z" transform="translate(-0.54785 -16.50702)" fill="#e40c23"/>
  </g>
</svg>
