<?xml version="1.0" encoding="utf-8"?>
<!-- Generator: Adobe Illustrator 26.0.3, SVG Export Plug-In . SVG Version: 6.00 Build 0)  -->
<svg version="1.1" id="ea198fb4-2142-446a-9236-b559ecfc542a"
	 xmlns="http://www.w3.org/2000/svg" xmlns:xlink="http://www.w3.org/1999/xlink" x="0px" y="0px" viewBox="0 0 199.8 28.7"
	 style="enable-background:new 0 0 199.8 28.7;" xml:space="preserve">
<style type="text/css">
	.st0{fill:#E40C23;}
	.st1{font-family:'MyriadPro-Regular';}
	.st2{font-size:27px;}
</style>
<g>
	<path d="M17.7,2.7c1.1,0.4,2.1,1,3,1.7c0.2,0.2,0.4,0.3,0.7,0.3c0.5,0,0.8-0.7,0.9-2.2h0.8c-0.1,1.6-0.1,4.5-0.1,8.7h-0.8
		c-0.1-1.4-0.4-2.8-0.9-4.1c-0.4-1-1-1.8-1.8-2.4c-0.6-0.6-1.3-1-2.1-1.3C16.5,3.2,15.7,3,14.8,3c-2.4,0-4.5,1.4-5.4,3.5
		c-1.3,2.8-1.9,5.8-1.8,8.8c-0.1,3,0.5,6,1.8,8.8c0.9,2.2,3.1,3.6,5.5,3.5c0.8,0,1.7-0.2,2.4-0.5c0.8-0.3,1.5-0.7,2-1.3
		c0.9-0.6,1.5-1.5,1.9-2.5c0.4-1.4,0.7-2.9,0.8-4.4h0.8c0,4.3,0,7.4,0.1,9.1h-0.8c0-0.6-0.1-1.1-0.3-1.6c-0.1-0.3-0.3-0.5-0.6-0.5
		c-0.3,0-0.5,0.1-0.8,0.3c-1,0.7-2,1.3-3.1,1.7c-1.1,0.4-2.3,0.6-3.6,0.6c-2.3,0.1-4.6-0.5-6.7-1.5c-1.9-1-3.4-2.6-4.4-4.5
		c-1.1-2.2-1.6-4.6-1.6-7c0-2.4,0.5-4.8,1.6-7c1-2,2.6-3.6,4.5-4.8c2-1.1,4.3-1.7,6.6-1.7C15.2,2.1,16.5,2.3,17.7,2.7z"/>
	<path d="M27.3,27.1c-0.8-0.9-1.2-2-1.1-3.1c0-1,0.3-1.9,0.8-2.7c0.5-0.7,1.3-1.3,2.1-1.6c1-0.5,2-0.9,3.1-1.2c1-0.3,2-0.7,2.9-1.2
		c0.6-0.3,0.9-0.9,0.9-1.5v-2.8c0.1-0.8-0.2-1.7-0.7-2.4c-0.6-0.6-1.4-0.9-2.2-0.8c-1-0.1-1.9,0.2-2.6,0.9c0.6,0.2,1.2,0.6,1.6,1.1
		c0.4,0.5,0.6,1.1,0.6,1.7c0,0.7-0.3,1.5-0.8,1.9c-0.6,0.5-1.3,0.7-2,0.7c-0.7,0-1.4-0.2-1.9-0.8c-0.8-1.1-0.9-2.5-0.2-3.7
		c0.4-0.5,0.9-1,1.5-1.3c0.7-0.4,1.6-0.7,2.4-0.9c1-0.2,2.1-0.3,3.1-0.3c1,0,2.1,0.1,3.1,0.4c0.8,0.2,1.6,0.6,2.2,1.2
		c0.5,0.5,0.9,1.2,1.1,1.9c0.2,1,0.3,2.1,0.3,3.1v9.8c0,0.4,0,0.8,0.2,1.2c0.1,0.2,0.4,0.4,0.6,0.4c0.5-0.1,0.9-0.3,1.3-0.6l0.4,0.6
		c-1.1,0.9-2.5,1.4-4,1.3c-1,0.1-2-0.2-2.8-0.8C36.3,27,36,26.2,36,25.4c-1.1,1.9-3.1,3-5.3,2.9C29.4,28.4,28.2,28,27.3,27.1z
		 M35.9,24.6v-7.4c-0.5,0.7-1.1,1.2-1.8,1.6c-0.8,0.5-1.5,1.1-2.1,1.8c-0.5,0.8-0.8,1.7-0.7,2.6c-0.1,0.8,0.2,1.5,0.6,2.2
		c0.4,0.5,1,0.7,1.6,0.7C34.5,26,35.4,25.4,35.9,24.6L35.9,24.6z"/>
	<path d="M59.4,9.9c0.6,0.7,0.8,1.5,0.8,2.3c0,0.8-0.2,1.6-0.8,2.2c-0.5,0.6-1.3,0.9-2,0.8c-0.7,0-1.4-0.2-1.9-0.6
		c-0.5-0.4-0.7-1-0.7-1.7c0-1.1,0.6-2.2,1.6-2.8c-0.1,0-0.3,0-0.4,0c-0.2,0-0.4,0-0.6,0.1c-1,0.2-1.8,0.8-2.3,1.7
		c-0.6,0.9-0.9,1.9-1,3v9.5c-0.1,0.9,0.2,1.7,0.8,2.3c0.8,0.5,1.7,0.7,2.6,0.6v0.8c-0.3,0-0.6,0-0.8,0c-2.4-0.1-4.1-0.1-4.9-0.1
		c-0.6,0-2.1,0-4.4,0.1c-0.2,0-0.5,0-0.7,0v-0.8c0.7,0.1,1.3-0.1,1.8-0.6c0.4-0.6,0.6-1.3,0.5-2V13.4c0.1-0.8-0.1-1.7-0.5-2.4
		c-0.4-0.5-1.1-0.8-1.8-0.8V9.5c0.8,0.1,1.5,0.1,2.2,0.1c1.8,0,3.5-0.1,5.3-0.5v3.3c0.4-1,1.1-1.9,2-2.5c0.8-0.6,1.9-1,2.9-1
		C57.9,8.9,58.8,9.3,59.4,9.9z"/>
	<path d="M76.7,11.3c1.6,1.6,2.3,4.1,2.3,7.5c0,3.4-0.8,5.9-2.3,7.5c-1.7,1.6-4.1,2.5-6.5,2.3c-2.4,0.1-4.7-0.7-6.5-2.3
		c-1.6-1.6-2.4-4-2.4-7.5c0-3.4,0.8-5.9,2.4-7.5c1.7-1.6,4.1-2.5,6.5-2.4C72.6,8.8,74.9,9.7,76.7,11.3z M67.7,11.9
		c-0.7,2.2-1,4.5-0.9,6.9c-0.1,2.3,0.2,4.6,0.9,6.8c0.6,1.5,1.4,2.2,2.5,2.2c1.1,0,1.9-0.7,2.5-2.2c0.7-2.2,1-4.5,0.9-6.9
		c0.1-2.3-0.2-4.7-0.9-6.9c-0.6-1.5-1.4-2.2-2.5-2.2C69.2,9.7,68.3,10.4,67.7,11.9z"/>
	<path class="st0" d="M116,5.9c2.3,2.1,3.5,5.2,3.5,9.3c0.1,2.4-0.5,4.8-1.7,6.9c-1.2,2-2.9,3.6-4.9,4.6c-2.4,1.1-5,1.7-7.7,1.6
		l-2.2,0c-1.4,0-2.4-0.1-3-0.1c-2.5,0-4.3,0-5.5,0.1v-0.7c0.6,0,1.2-0.1,1.7-0.3c0.4-0.1,0.7-0.4,0.8-0.8c0.2-0.6,0.2-1.3,0.2-2V6.5
		c0-0.7,0-1.3-0.2-2c-0.1-0.4-0.4-0.7-0.8-0.8c-0.6-0.2-1.2-0.3-1.7-0.3V2.7c1,0.1,2.5,0.1,4.4,0.1h1.1l1.4,0c2,0,3.4-0.1,4.2-0.1
		C110.2,2.7,113.7,3.8,116,5.9z M103.8,3.6c-0.4,0.2-0.7,0.5-0.8,0.9c-0.2,0.6-0.2,1.3-0.2,1.9v18c0,0.7,0,1.3,0.2,1.9
		c0.1,0.4,0.4,0.7,0.8,0.9c0.5,0.2,1.1,0.3,1.7,0.3c2.9,0,5-1,6.2-3c1.2-2,1.8-5.1,1.8-9.2c0-4.1-0.6-7.1-1.9-9.1
		c-1.3-1.9-3.3-2.9-6.2-2.9C104.9,3.3,104.3,3.4,103.8,3.6z"/>
	<path class="st0" d="M129.4,24.8c-0.1,0.7,0.1,1.4,0.5,2c0.5,0.4,1.1,0.6,1.8,0.6v0.8c-2.4-0.1-4-0.1-4.8-0.1c-0.7,0-2.4,0-5,0.1
		v-0.8c0.7,0.1,1.3-0.1,1.8-0.6c0.4-0.6,0.6-1.3,0.5-2V13.5c0.1-0.8-0.1-1.7-0.5-2.4c-0.4-0.5-1.1-0.8-1.8-0.8V9.6
		c0.8,0.1,1.5,0.1,2.2,0.1c1.8,0,3.5-0.1,5.3-0.5V24.8z M129,1c0.6,0.5,0.9,1.3,0.9,2c0,0.8-0.3,1.5-0.9,2c-1.4,1-3.3,1-4.8,0
		c-0.6-0.5-0.9-1.3-0.9-2c0-0.8,0.3-1.5,0.9-2C125.7,0,127.6,0,129,1z"/>
	<path class="st0" d="M150.6,10.5c0.4,0.5,0.7,1.1,0.9,1.8c0.2,1,0.3,1.9,0.3,2.9v9.7c-0.1,0.7,0.1,1.4,0.5,2
		c0.5,0.4,1.1,0.6,1.8,0.6v0.8c-2.4-0.1-4-0.1-4.8-0.1c-0.7,0-2.3,0-4.7,0.1v-0.8c0.6,0.1,1.1-0.1,1.5-0.6c0.3-0.6,0.5-1.3,0.4-2
		V13.6c0-0.8-0.1-1.5-0.5-2.2c-0.4-0.5-1.1-0.8-1.7-0.8c-1,0-1.9,0.4-2.5,1.2c-0.7,0.8-1.1,1.9-1,3v10c-0.1,0.7,0.1,1.4,0.4,2
		c0.4,0.4,0.9,0.6,1.5,0.6v0.8c-2.2-0.1-3.7-0.1-4.5-0.1c-0.7,0-2.4,0-5,0.1v-0.8c0.7,0.1,1.3-0.1,1.8-0.6c0.4-0.6,0.6-1.3,0.5-2
		V13.5c0.1-0.8-0.1-1.7-0.5-2.4c-0.4-0.5-1.1-0.8-1.8-0.8V9.6c0.8,0.1,1.5,0.1,2.2,0.1c1.8,0,3.5-0.1,5.3-0.5v3.2
		c1.1-2.2,3-3.3,5.9-3.3C148.1,8.9,149.6,9.4,150.6,10.5z"/>
	<path class="st0" d="M165,9.4c0.6,0.2,1.2,0.4,1.8,0.8c0.2,0.1,0.4,0.2,0.6,0.3c0.2,0,0.4-0.1,0.6-0.3c0.2-0.3,0.3-0.6,0.3-1h0.8
		c-0.1,1.2-0.1,3.3-0.1,6.3h-0.8c-0.2-1.4-0.6-2.8-1.4-4c-0.7-1.1-1.9-1.7-3.2-1.6c-0.6,0-1.3,0.2-1.8,0.6c-0.5,0.4-0.7,1.1-0.7,1.7
		c0,0.8,0.3,1.5,0.8,2.1c0.8,0.8,1.7,1.5,2.6,2.1l1,0.8c1.2,0.9,2.3,1.8,3.2,3c0.7,0.9,1.1,2.1,1,3.2c0,1-0.3,2-0.9,2.8
		c-0.6,0.8-1.5,1.5-2.5,1.9c-1.1,0.4-2.2,0.7-3.4,0.6c-1.2,0-2.3-0.2-3.4-0.8c-0.5-0.3-1.1-0.5-1.7-0.8c-0.2-0.1-0.5,0-0.6,0.2
		c-0.2,0.3-0.4,0.7-0.4,1h-0.8c0.1-1.4,0.1-3.8,0.1-7.2h0.8c0.5,4.4,2.1,6.6,4.9,6.6c0.7,0,1.3-0.2,1.8-0.6c0.5-0.5,0.8-1.2,0.7-1.9
		c0-0.6-0.1-1.3-0.4-1.8c-0.3-0.5-0.7-1-1.1-1.4c-0.5-0.4-1.1-1-2.1-1.7c-1.1-0.9-1.9-1.6-2.5-2.1c-0.6-0.5-1.1-1.2-1.4-1.9
		c-0.4-0.7-0.6-1.6-0.6-2.4c0-1.4,0.6-2.8,1.8-3.6c1.3-0.9,2.8-1.4,4.4-1.3C163.3,9.1,164.2,9.2,165,9.4z"/>
	<path class="st0" d="M187.3,22.9l0.6,0.2c-0.5,1.5-1.4,2.9-2.6,4c-1.3,1.1-2.9,1.7-4.6,1.6c-2.3,0.1-4.5-0.8-6.1-2.4
		c-1.5-1.6-2.2-4-2.2-7.2c0-3.2,0.8-5.7,2.4-7.4c1.7-1.7,4-2.7,6.4-2.6c4.5,0,6.8,2.7,6.8,8h-10.1c0,0.4,0,0.9,0,1.7
		c0,1.4,0.2,2.7,0.7,4c0.3,0.9,0.9,1.7,1.7,2.3c0.7,0.5,1.5,0.7,2.3,0.7C184.6,25.7,186.4,24.6,187.3,22.9z M178.9,11.4
		c-0.7,1.6-1,3.2-1.1,4.9h5.7c0.1-1.6-0.1-3.2-0.6-4.7c-0.4-1.2-1.1-1.9-1.9-1.9C180.1,9.9,179.3,10.5,178.9,11.4z"/>
	<path class="st0" d="M197.5,24.8c-0.1,0.7,0.1,1.4,0.5,2c0.5,0.4,1.1,0.6,1.8,0.6v0.8c-2.5-0.1-4.1-0.1-4.8-0.1c-0.8,0-2.5,0-5,0.1
		v-0.8c0.6,0.1,1.3-0.1,1.8-0.6c0.4-0.6,0.6-1.3,0.5-2V4.3c0.1-0.8-0.1-1.7-0.5-2.4c-0.4-0.5-1.1-0.8-1.8-0.8V0.4
		c0.8,0.1,1.5,0.1,2.2,0.1c1.8,0,3.5-0.1,5.3-0.5V24.8z"/>
	<text transform="matrix(1 0 0 1 79.005 21.6056)" class="st1 st2">*</text>
</g>
</svg>
